<svg width="18" height="18" viewBox="0 0 18 18" fill="none" xmlns="http://www.w3.org/2000/svg">
<path d="M8.46749 9.00002L11.1225 6.34502C11.2622 6.2045 11.3406 6.01441 11.3406 5.81627C11.3406 5.61813 11.2622 5.42804 11.1225 5.28752C11.0528 5.21723 10.9698 5.16143 10.8784 5.12335C10.787 5.08528 10.689 5.06567 10.59 5.06567C10.491 5.06567 10.393 5.08528 10.3016 5.12335C10.2102 5.16143 10.1272 5.21723 10.0575 5.28752L6.87749 8.46752C6.80719 8.53724 6.7514 8.6202 6.71332 8.71159C6.67524 8.80298 6.65564 8.90101 6.65564 9.00002C6.65564 9.09903 6.67524 9.19706 6.71332 9.28846C6.7514 9.37985 6.80719 9.4628 6.87749 9.53252L10.0575 12.75C10.1276 12.8195 10.2107 12.8745 10.3021 12.9119C10.3934 12.9492 10.4913 12.9681 10.59 12.9675C10.6887 12.9681 10.7865 12.9492 10.8779 12.9119C10.9693 12.8745 11.0524 12.8195 11.1225 12.75C11.2622 12.6095 11.3406 12.4194 11.3406 12.2213C11.3406 12.0231 11.2622 11.833 11.1225 11.6925L8.46749 9.00002Z" fill="white"/>
</svg>
