<svg width="42" height="42" viewBox="0 0 42 42" fill="none" xmlns="http://www.w3.org/2000/svg">
<path d="M27.39 23.4075L26.04 22.05V18.705C26.058 17.4628 25.6259 16.2562 24.8236 15.3077C24.0213 14.3593 22.9029 13.7332 21.675 13.545C20.9624 13.4511 20.2379 13.5103 19.5499 13.7187C18.862 13.927 18.2264 14.2796 17.6855 14.7531C17.1447 15.2265 16.711 15.8098 16.4134 16.4641C16.1159 17.1184 15.9613 17.8287 15.96 18.5475V22.05L14.61 23.4075C14.4404 23.5799 14.3254 23.7984 14.2794 24.0358C14.2334 24.2732 14.2583 24.5189 14.3512 24.7422C14.444 24.9655 14.6006 25.1565 14.8014 25.2912C15.0021 25.426 15.2382 25.4986 15.48 25.5H18V25.755C18.035 26.5164 18.3705 27.2328 18.9328 27.7474C19.4951 28.2619 20.2385 28.5325 21 28.5C21.7615 28.5325 22.5049 28.2619 23.0672 27.7474C23.6295 27.2328 23.965 26.5164 24 25.755V25.5H26.52C26.7618 25.4986 26.9979 25.426 27.1986 25.2912C27.3994 25.1565 27.556 24.9655 27.6488 24.7422C27.7417 24.5189 27.7666 24.2732 27.7206 24.0358C27.6746 23.7984 27.5596 23.5799 27.39 23.4075ZM22.5 25.755C22.4584 26.1157 22.2792 26.4465 21.9998 26.6785C21.7204 26.9104 21.3622 27.0256 21 27C20.6378 27.0256 20.2796 26.9104 20.0002 26.6785C19.7208 26.4465 19.5416 26.1157 19.5 25.755V25.5H22.5V25.755ZM16.1325 24L17.0175 23.115C17.1579 22.9754 17.2692 22.8095 17.3452 22.6267C17.4211 22.4439 17.4602 22.2479 17.46 22.05V18.5475C17.4604 18.0415 17.569 17.5415 17.7786 17.081C17.9881 16.6205 18.2938 16.2101 18.675 15.8775C19.0511 15.5367 19.4967 15.2818 19.981 15.1303C20.4653 14.9788 20.9768 14.9343 21.48 15C22.3474 15.1408 23.1346 15.5902 23.6969 16.2655C24.2592 16.9408 24.5586 17.7965 24.54 18.675V22.05C24.5389 22.2474 24.5767 22.4431 24.6513 22.6258C24.726 22.8086 24.836 22.9748 24.975 23.115L25.8675 24H16.1325Z" fill="white"/>
</svg>
